<?xml version="1.0" encoding="UTF-8"?>
<svg id="FF_Design_Fix_Image" data-name="FF Design Fix Image" xmlns="http://www.w3.org/2000/svg" viewBox="0 0 233.86 53.71">
  <path d="M68.36,2.04h4.11c3.78,0,7.57-.15,11.35,.04,4.54,.22,8.93,1.11,12.83,3.7,3.55,2.36,5.84,5.6,6.85,9.7,1.01,4.1,1.04,8.21-.31,12.28-1.82,5.47-5.58,9.06-10.83,11.17-3.26,1.31-6.68,1.84-10.2,1.81-4.12-.04-8.25,0-12.37,0-.46,0-.91,0-1.43,0V2.04Zm9.12,7.86v23.12c2.69-.13,5.33-.04,7.89-.42,3.81-.56,6.87-2.46,8.33-6.2,1.09-2.79,1.18-5.71,.46-8.64-.75-3.04-2.52-5.22-5.35-6.55-3.61-1.7-7.45-1.32-11.33-1.3Z"/>
  <path d="M194.02,16.67v-3.07h8.36v1.36c0,8.11,.15,16.23-.04,24.34-.18,7.71-4.62,13.26-12.89,14.22-5.26,.61-10.16-.33-14.86-2.61-.71-.34-1.37-.8-2.22-1.3,1.47-2.1,2.93-4.18,4.44-6.33,2.16,1.77,4.56,2.88,7.25,3.28,6.27,.92,10.55-2.42,9.53-9.17-.23,.15-.48,.23-.61,.4-3.38,4.32-11.77,3.95-15.73,.64-2.84-2.37-4.29-5.33-4.9-8.87-.63-3.66-.03-7.09,1.76-10.31,1.92-3.45,4.78-5.59,8.75-6.27,3.44-.58,6.57-.01,9.38,2.08,.3,.23,.6,.48,.85,.76,.25,.27,.45,.6,.67,.9l.26-.05Zm.02,10.2c0-3.8-2.96-6.75-6.72-6.81-3.93-.06-6.59,2.93-6.61,6.8-.03,4.08,2.74,7.06,6.49,7.06,4,0,6.85-2.94,6.85-7.06Z"/>
  <path d="M9.03,25.92v14.75H0V2.11H25.3v7.71H9.13v8.27h14.89v7.84H9.03Z"/>
  <path d="M52.85,25.92h-14.95v14.75h-9.07V2.11h25.3v7.71h-16.17v8.27h14.89v7.84Z"/>
  <path d="M233.77,40.67h-8.86c0-.56,0-1.06,0-1.56,0-4.68,.07-9.35-.05-14.02-.03-1.19-.39-2.52-1.01-3.53-1.51-2.42-5.33-1.85-6.62,.59-.6,1.14-.99,2.52-1.02,3.8-.12,4.42-.05,8.84-.05,13.26,0,.46,0,.92,0,1.46h-9.03V13.6h8.73v3.58c1.54-1.82,3.01-3.26,5.07-3.91,6.02-1.9,12.41,1.47,12.76,8.18,.33,6.37,.07,12.77,.07,19.23Z"/>
  <path d="M133.95,29.52h-19.58c.29,2.2,1.48,3.66,3.24,4.58,2.96,1.56,6.38,1.01,8.8-1.33,.53-.52,.86-.52,1.45-.11,1.37,.95,2.76,1.89,4.23,2.68,1,.54,.89,.97,.22,1.67-2.4,2.47-5.3,3.81-8.72,4.28-2.94,.4-5.76,.24-8.54-.77-5.11-1.86-8.21-5.34-9.02-10.82-.8-5.39,.62-9.97,4.73-13.62,1.78-1.58,3.93-2.57,6.24-3.02,3.09-.6,6.15-.43,9.14,.81,3.42,1.42,5.55,3.98,6.85,7.3,1.03,2.62,1.24,5.38,.97,8.36Zm-8.08-5.6c.18-2.92-2.2-4.97-4.54-5.11-3.76-.22-6.68,1.97-6.84,5.11h11.38Z"/>
  <path d="M134.19,37.33c1.82-1.96,3.43-3.7,5.05-5.44,1.95,1.93,4.16,3.1,6.88,3.03,.64-.02,1.41-.14,1.88-.52,.52-.41,1.07-1.16,1.07-1.77,0-.59-.54-1.52-1.06-1.72-2.16-.84-4.41-1.47-6.63-2.17-3.64-1.15-5.78-4.08-5.48-7.7,.29-3.48,2.19-5.92,5.7-7.25,4.87-1.84,9.62-1.27,14.17,1.15,.22,.12,.44,.24,.64,.4,.53,.41,1.05,.83,1.57,1.24-1.66,1.78-3.27,3.5-4.87,5.21-2.15-1.9-4.46-3.05-7.38-2.25-1.05,.29-1.73,.87-1.74,2,0,1.07,.7,1.49,1.66,1.72,1.82,.44,3.63,.92,5.41,1.49,2.32,.74,4.39,1.86,5.76,4.01,1.38,2.17,1.15,6.28-.4,8.35-1.97,2.63-4.68,3.69-7.83,4.16-4.01,.6-7.76-.1-11.32-1.9-1.06-.54-2-1.32-3.08-2.05Z"/>
  <path d="M169.67,40.67h-8.98V13.59h8.98v27.08Z"/>
  <path d="M164.9,0c2.88,0,5.09,2.14,5.09,4.94,0,2.79-2.22,4.94-5.09,4.93-2.8,0-5.02-2.15-5.03-4.87C159.85,2.21,162.07,0,164.9,0Z"/>
</svg>