<?xml version="1.0" encoding="utf-8"?>
<!-- Generator: Adobe Illustrator 26.5.0, SVG Export Plug-In . SVG Version: 6.00 Build 0)  -->
<svg version="1.1" id="Layer_1" xmlns="http://www.w3.org/2000/svg" xmlns:xlink="http://www.w3.org/1999/xlink" x="0px" y="0px"
	 viewBox="0 0 32.5 32.5" style="enable-background:new 0 0 32.5 32.5;" xml:space="preserve">
<g>
	<path d="M6.2,30.6c-1.5,1.5-3.2,2.9-5.1,1.1c-2.2-2-0.7-3.8,0.9-5.5c16-16,3.3-3.3,20.6-20.5C17.1,5.8,13.2,6,9.2,6.1
		c-1.9,0-3.8-0.3-3.9-2.8C5.2,0.4,7.2,0,9.3,0c6.3,0,12.7,0,19,0c3,0,4.2,1.3,4.2,4.2c-0.1,6.3,0,12.7,0,19c0,1.9-0.2,3.8-2.8,4
		c-2.8,0.2-3.3-1.8-3.2-4c0.1-3.9,0.3-7.9,0.6-13.5L6.2,30.6z"/>
</g>
</svg>
