<?xml version="1.0" encoding="utf-8"?>
<!-- Generator: Adobe Illustrator 25.3.1, SVG Export Plug-In . SVG Version: 6.00 Build 0)  -->
<svg version="1.1" id="Layer_1" xmlns="http://www.w3.org/2000/svg" xmlns:xlink="http://www.w3.org/1999/xlink" x="0px" y="0px"
	 viewBox="0 0 142.43 132.72" style="enable-background:new 0 0 142.43 132.72;" xml:space="preserve">
<style type="text/css">
	.st0{fill:#141414;}
	.st1{fill:#ED185F;}
</style>
<g>
	<path class="st0" d="M28.89,94.43l8.98,22.8l9.1-22.8h10.56l-15.95,37.45H34L18.28,94.43H28.89z"/>
	<path class="st0" d="M71.18,94.43v22.18c0,1.57,0.06,3.99,1.91,5.78c1.12,1.07,2.92,1.8,4.6,1.8s3.43-0.67,4.49-1.63
		c2.25-1.97,2.19-4.72,2.19-6.79V94.43h9.71v21.51c0,3.93-0.17,8.03-4.21,12.13c-3.14,3.2-7.08,4.66-12.35,4.66
		c-5.9,0-10.11-2.02-12.41-4.49c-3.26-3.54-3.65-8.31-3.65-12.3V94.43H71.18z"/>
	<path class="st0" d="M123.23,102.68h-11.57v6.23h10.95v8.25h-10.95v6.46h11.57v8.25h-21.28V94.43h21.28V102.68z"/>
</g>
<g>
	<g>
		<path class="st1" d="M117.46,56.48c-1.38,2.58-3.55,4.48-5.67,6.38c-9.77,8.74-21.24,13.92-34.13,15.99
			c-8.88,1.42-17.67,1.02-26.27-1.82c-9.44-3.12-16.93-8.8-22.46-17.07c-0.77-1.15-0.68-2.39-0.26-3.58
			c3.47-9.91,9.95-17.27,19.11-22.29c8.43-4.62,17.49-6.38,27.06-5.83c8.93,0.51,17.25,3.02,24.87,7.71
			c7.44,4.59,13.19,10.79,17.34,18.48c0.15,0.27,0.28,0.55,0.42,0.83C117.46,55.67,117.46,56.07,117.46,56.48z M69.36,38.67
			c-1.38,0.1-2.82,0-4.14,0.35c-2.5,0.68-4.78,1.91-6.81,3.55c-3.8,3.08-6.22,6.94-6.39,11.94c-0.17,5.2,1.77,9.62,5.35,13.32
			c3.04,3.14,6.73,5.03,11.17,5.06c5.8,0.04,10.55-2.35,14.35-6.64c4.57-5.16,5.41-12.73,1.85-18.6
			C81.28,41.95,76.24,38.69,69.36,38.67z M73.7,33.73c0.01,0.03,0.01,0.07,0.03,0.08c0.19,0.07,0.38,0.14,0.57,0.19
			c5.05,1.39,9.36,3.99,12.76,8c3.97,4.7,5.61,10.15,4.75,16.25c-0.68,4.82-2.88,8.94-6.19,12.49c-0.18,0.19-0.34,0.4-0.6,0.7
			c10.01-2.83,20.58-9.39,26.26-15.92C102.61,40.56,86.28,33.62,73.7,33.73z M61.28,34.92c-0.3,0.03-0.41,0.02-0.51,0.06
			c-2.49,0.84-5.06,1.5-7.46,2.55c-8.9,3.9-15.47,10.15-19.02,19.35c-0.21,0.54-0.18,0.92,0.17,1.42c3.73,5.2,8.47,9.18,14.27,11.88
			c1.87,0.87,3.85,1.53,5.77,2.29c0.05-0.07,0.1-0.15,0.15-0.22c-5.87-5.57-8.85-12.26-7.43-20.37
			C48.66,43.73,53.86,38.47,61.28,34.92z"/>
		<path class="st1" d="M60.7,50.37c1.15,1.61,2.5,2.87,4.3,3.6c3.27,1.32,6.64-0.8,6.86-4.33c0.04-0.69,0.02-1.39-0.09-2.07
			c-0.1-0.64-0.37-1.25-0.59-1.97c3.12,0.48,5.69,1.77,7.36,4.44c0.67,1.07,1.26,2.23,1.67,3.42c0.55,1.64,0.33,3.32-0.26,4.93
			c-0.6,1.64-1.68,2.96-2.88,4.19c-0.96,0.97-2.23,1.34-3.5,1.61c-4.93,1.06-9.28-0.04-12.7-3.85C58.16,57.3,58.16,53.51,60.7,50.37
			z"/>
	</g>
	<polygon class="st1" points="21.49,13.55 31.41,24.6 27.53,28.18 17.76,18.31 	"/>
	<polygon class="st1" points="14.19,51.86 14.18,57.89 0,57.78 0,52.09 	"/>
	<polygon class="st1" points="129.12,52.15 129.08,57.83 142.43,57.99 142.43,51.85 	"/>
	<polygon class="st1" points="107.47,24.4 111.3,29.31 121.56,19.84 117.94,15.51 	"/>
	<polygon class="st1" points="66.78,13.96 72.61,13.96 72.61,0.05 66.76,0 	"/>
</g>
</svg>
