<?xml version="1.0" encoding="utf-8"?>
<!-- Generator: Adobe Illustrator 25.3.1, SVG Export Plug-In . SVG Version: 6.00 Build 0)  -->
<svg version="1.1" id="Layer_1" xmlns="http://www.w3.org/2000/svg" xmlns:xlink="http://www.w3.org/1999/xlink" x="0px" y="0px"
	 viewBox="0 0 258.04 104.07" style="enable-background:new 0 0 258.04 104.07;" xml:space="preserve">
<style type="text/css">
	.st0{fill:#FFFFFF;}
	.st1{fill:#ED175F;}
</style>
<g>
	<path class="st0" d="M22.71,73.67l7.32,18.21l7.16-18.31l8.45-0.06l-12.56,30.08l-6.07,0.04l-12.8-29.91L22.71,73.67z"/>
	<path class="st0" d="M56.57,73.43l0.12,17.76c0.01,1.26,0.07,3.19,1.56,4.62c0.91,0.85,2.35,1.42,3.7,1.41
		c1.35-0.01,2.74-0.56,3.59-1.33c1.79-1.59,1.73-3.79,1.72-5.45l-0.12-17.09l7.78-0.05l0.12,17.22c0.02,3.15-0.09,6.43-3.31,9.74
		c-2.5,2.58-5.64,3.77-9.87,3.8c-4.72,0.03-8.11-1.56-9.96-3.53c-2.63-2.81-2.97-6.63-2.99-9.83l-0.12-17.22L56.57,73.43z"/>
	<path class="st0" d="M98.29,79.76l-9.26,0.06l0.03,4.99l8.77-0.06l0.05,6.61l-8.77,0.06l0.04,5.17l9.26-0.06l0.05,6.61l-17.04,0.12
		L81.2,73.26l17.04-0.12L98.29,79.76z"/>
</g>
<g>
	<path class="st0" d="M114.34,102.83l-0.21-29.89l5.74-0.04c4.25-0.03,7.24,0.16,8.98,0.58c1.74,0.42,3.26,1.12,4.58,2.12
		c1.72,1.31,3.04,2.99,3.93,5.04c0.9,2.05,1.36,4.41,1.38,7.1c0.02,2.67-0.4,5.03-1.27,7.08c-0.86,2.05-2.15,3.75-3.87,5.08
		c-1.3,1.02-2.78,1.74-4.45,2.18c-1.66,0.44-4.26,0.67-7.78,0.7l-1.29,0.01L114.34,102.83z M117.91,99.45l2.27-0.02
		c3.67-0.03,6.22-0.2,7.63-0.53c1.41-0.33,2.59-0.89,3.52-1.67c1.22-1.03,2.14-2.35,2.77-3.97s0.94-3.47,0.92-5.55
		c-0.01-2.1-0.34-3.93-0.99-5.52s-1.59-2.88-2.83-3.91c-0.94-0.78-2.14-1.34-3.59-1.66c-1.45-0.32-3.98-0.47-7.59-0.45l-2.27,0.02
		L117.91,99.45z"/>
	<path class="st0" d="M144.66,102.62l-0.21-29.89l15.76-0.11l0.02,3.25l-12.21,0.08l0.06,8.57l12.21-0.08l0.02,3.31l-12.21,0.08
		l0.08,11.45l12.21-0.08l0.02,3.31L144.66,102.62z"/>
	<path class="st0" d="M177.2,85.79c1.95,0.82,3.43,1.91,4.42,3.28c1,1.37,1.5,2.99,1.51,4.87c0.02,2.75-0.84,4.97-2.58,6.66
		c-1.74,1.69-4.05,2.55-6.93,2.57c-2.36,0.02-4.33-0.57-5.93-1.77c-1.6-1.19-2.69-2.9-3.26-5.11l3.21-1.61
		c0.45,1.81,1.18,3.17,2.18,4.1c1.01,0.93,2.27,1.38,3.78,1.37c1.78-0.01,3.22-0.54,4.32-1.57c1.1-1.04,1.64-2.38,1.63-4.02
		c-0.01-1.33-0.4-2.49-1.18-3.47c-0.78-0.98-1.94-1.81-3.5-2.48l-3.64-1.53c-1.99-0.82-3.48-1.87-4.46-3.17
		c-0.98-1.3-1.48-2.86-1.49-4.69c-0.01-2.12,0.76-3.88,2.33-5.28c1.57-1.4,3.58-2.11,6.03-2.12c1.8-0.01,3.35,0.36,4.67,1.11
		s2.35,1.87,3.1,3.35l-2.93,1.9c-0.67-1.15-1.43-2.01-2.26-2.57c-0.83-0.56-1.78-0.83-2.82-0.83c-1.33,0.01-2.42,0.42-3.27,1.25
		c-0.85,0.82-1.26,1.87-1.25,3.13c0.01,1.06,0.34,1.98,1,2.75c0.66,0.77,1.68,1.45,3.06,2.04L177.2,85.79z"/>
	<path class="st0" d="M187.97,102.32l-0.21-29.89l3.55-0.02l0.21,29.89L187.97,102.32z"/>
	<path class="st0" d="M215.08,86.7l12.33-0.09l0.01,1c0.03,4.71-1.28,8.43-3.92,11.17c-2.65,2.74-6.28,4.13-10.89,4.16
		c-1.4,0.01-2.74-0.13-4.01-0.42c-1.28-0.29-2.45-0.72-3.53-1.28c-2.46-1.33-4.36-3.18-5.71-5.54c-1.35-2.37-2.04-5.06-2.06-8.08
		c-0.02-2.49,0.36-4.74,1.15-6.76c0.78-2.01,1.97-3.79,3.57-5.32c1.34-1.29,2.9-2.27,4.68-2.93c1.78-0.67,3.75-1.01,5.91-1.02
		c2.87-0.02,5.37,0.48,7.48,1.51c2.12,1.03,3.88,2.58,5.28,4.67l-2.96,2.41c-1.09-1.8-2.44-3.15-4.05-4.04
		c-1.61-0.89-3.48-1.33-5.6-1.32c-3.47,0.02-6.28,1.21-8.43,3.57c-2.15,2.36-3.21,5.43-3.18,9.21c0.02,3.57,1.14,6.48,3.36,8.76
		c2.21,2.27,5.02,3.4,8.42,3.37c2.99-0.02,5.48-0.95,7.46-2.78c1.98-1.83,3.07-4.2,3.27-7.12l-8.53,0.06L215.08,86.7z"/>
	<path class="st0" d="M232.78,102.01l-0.21-31.07l22.03,23.73l-0.16-22.7l3.39-0.02l0.21,31.05l-22.03-23.47l0.16,22.46
		L232.78,102.01z"/>
</g>
<g>
	<g>
		<path class="st1" d="M91.62,43.77c-1.07,2.02-2.74,3.52-4.39,5.01c-7.57,6.87-16.49,10.97-26.53,12.65
			c-6.92,1.16-13.78,0.89-20.5-1.28c-7.38-2.38-13.25-6.77-17.61-13.19c-0.6-0.89-0.55-1.86-0.23-2.79
			c2.65-7.75,7.67-13.53,14.78-17.49c6.55-3.65,13.61-5.07,21.07-4.69c6.97,0.35,13.47,2.26,19.43,5.88
			C83.49,31.39,88,36.2,91.28,42.18c0.12,0.21,0.22,0.43,0.34,0.64C91.62,43.14,91.62,43.45,91.62,43.77z M54.01,30.15
			c-1.08,0.09-2.2,0.01-3.23,0.3c-1.95,0.54-3.72,1.51-5.29,2.81c-2.95,2.42-4.81,5.44-4.92,9.34c-0.11,4.06,1.43,7.5,4.25,10.36
			c2.39,2.43,5.27,3.89,8.74,3.89c4.52,0,8.21-1.89,11.15-5.26c3.53-4.05,4.15-9.96,1.34-14.52C63.34,32.63,59.38,30.12,54.01,30.15
			z M57.38,26.27c0.01,0.02,0.01,0.06,0.02,0.06c0.15,0.05,0.3,0.1,0.45,0.15c3.95,1.06,7.32,3.06,9.99,6.17
			c3.12,3.64,4.43,7.88,3.79,12.65c-0.5,3.76-2.2,6.99-4.76,9.78c-0.14,0.15-0.26,0.31-0.46,0.55c7.79-2.26,16-7.43,20.39-12.56
			C79.96,31.44,67.19,26.12,57.38,26.27z M47.7,27.27c-0.23,0.03-0.32,0.02-0.39,0.05c-1.94,0.67-3.94,1.2-5.81,2.03
			c-6.92,3.09-12.01,8-14.73,15.19c-0.16,0.42-0.14,0.72,0.14,1.1c2.94,4.03,6.66,7.12,11.19,9.19c1.47,0.67,3.01,1.17,4.51,1.75
			c0.04-0.06,0.08-0.11,0.11-0.17c-4.61-4.31-6.96-9.51-5.9-15.85C37.9,34.2,41.93,30.07,47.7,27.27z"/>
		<path class="st1" d="M47.33,39.31c0.9,1.25,1.97,2.23,3.37,2.78c2.56,1.01,5.17-0.66,5.33-3.41c0.03-0.54,0.01-1.09-0.08-1.61
			c-0.09-0.5-0.29-0.97-0.47-1.53c2.44,0.36,4.44,1.35,5.77,3.43c0.53,0.83,1,1.73,1.32,2.66c0.44,1.27,0.27,2.59-0.18,3.84
			c-0.46,1.28-1.29,2.32-2.23,3.28c-0.74,0.76-1.73,1.06-2.72,1.27c-3.84,0.85-7.24,0.02-9.93-2.94
			C45.39,44.73,45.36,41.78,47.33,39.31z"/>
	</g>
	<polygon class="st1" points="16.55,10.81 24.35,19.37 21.34,22.19 13.67,14.55 	"/>
	<polygon class="st1" points="11.07,40.72 11.09,45.43 0.03,45.42 0,40.98 	"/>
	<polygon class="st1" points="100.7,40.33 100.7,44.76 111.1,44.81 111.07,40.03 	"/>
	<polygon class="st1" points="83.66,18.81 86.67,22.62 94.63,15.17 91.78,11.82 	"/>
	<polygon class="st1" points="51.88,10.89 56.42,10.85 56.34,0.01 51.79,0 	"/>
</g>
</svg>
